<svg version="1.1" id="Layer_1" xmlns="http://www.w3.org/2000/svg" xmlns:xlink="http://www.w3.org/1999/xlink" x="0px" y="0px"
	 width="100%" viewBox="0 0 1024 1024" enable-background="new 0 0 1024 1024" xml:space="preserve">
<path fill="#FFFFFF" opacity="1.000000" stroke="none" 
	d="
M1.000000,378.000000 
	C1.000000,252.000015 1.000000,126.500031 1.000000,1.000034 
	C342.333282,1.000022 683.666565,1.000022 1025.000000,1.000011 
	C1025.000000,342.333252 1025.000000,683.666504 1025.000000,1024.999756 
	C683.666809,1024.999878 342.333618,1024.999878 1.000206,1025.000000 
	C1.000000,809.500000 1.000000,594.000000 1.000000,378.000000 
M925.932251,948.988220 
	C958.523376,948.988220 991.114502,948.988220 1024.000000,948.988220 
	C1024.000000,946.706299 1024.000000,944.905640 1024.000000,943.105042 
	C1024.000000,676.566223 1024.000366,410.027405 1023.993225,143.488602 
	C1023.993164,141.660339 1023.890137,139.832092 1023.973633,137.079239 
	C1023.927490,131.384888 1023.881348,125.690521 1023.988220,119.067566 
	C1023.988220,104.813667 1023.988220,90.559769 1023.988220,76.000015 
	C1022.389832,76.000015 1021.259033,76.000008 1020.128235,76.000008 
	C944.747009,76.000015 869.365845,75.999413 793.984619,76.006935 
	C792.990417,76.007034 791.996277,76.110580 790.338013,76.032310 
	C789.890808,76.076530 789.443665,76.120750 788.067993,76.011765 
	C526.108337,76.011765 264.148621,76.011765 2.164671,76.011765 
	C2.164671,103.734695 2.164671,130.865341 2.026303,158.921158 
	C2.072457,165.615387 2.118610,172.309631 2.011745,179.932449 
	C2.011745,436.228638 2.011745,692.524780 2.011745,949.000000 
	C37.579655,949.000000 72.545570,949.002441 107.511490,948.993042 
	C109.339737,948.992554 111.167953,948.890198 113.921425,948.973633 
	C114.587700,948.982300 115.253967,948.998535 115.920242,948.998535 
	C384.119019,948.999756 652.317810,949.000244 920.516602,948.993286 
	C922.012329,948.993225 923.507996,948.890076 925.932251,948.988220 
z"/>
<path fill="#FFCB05" opacity="1.000000" stroke="none" 
	d="
M788.996460,76.164978 
	C789.443665,76.120750 789.890808,76.076530 790.662231,76.459366 
	C790.277222,78.147064 789.530273,79.388153 788.864685,80.671394 
	C782.970825,92.033730 781.788269,100.292519 790.514221,111.191513 
	C792.974243,114.264183 794.794617,118.150673 795.891968,121.956924 
	C799.377136,134.045746 798.643188,146.171951 795.403198,158.277405 
	C793.929688,163.782928 795.895752,168.496674 799.931458,172.497391 
	C803.643555,176.177200 807.652283,175.131622 811.762329,173.646240 
	C814.488770,172.660919 817.136658,171.428268 819.907898,170.602478 
	C827.231812,168.420120 831.528198,170.995667 832.880920,178.773239 
	C833.805603,184.090179 833.149597,189.689133 834.143616,194.984955 
	C835.166687,200.435364 836.619873,206.051712 839.201050,210.893845 
	C841.799438,215.768311 847.365417,216.794830 852.509521,215.830795 
	C856.178589,215.143204 858.023987,211.856003 858.007141,208.056259 
	C857.977661,201.419571 858.147278,194.743530 857.488708,188.158463 
	C856.763123,180.903275 854.495605,173.762543 854.181091,166.516312 
	C853.805908,157.875244 857.382690,150.729172 867.278564,147.849777 
	C871.472595,146.629425 875.481384,144.062424 878.992188,141.353073 
	C886.025574,135.925293 888.140381,128.017471 888.157166,118.956841 
	C894.842407,128.010284 896.036499,147.701157 889.135254,157.325211 
	C887.518005,159.580582 885.462219,161.554840 884.062134,163.926392 
	C880.096497,170.643753 881.923828,177.517502 884.089417,184.262589 
	C890.372131,203.831116 912.544067,217.268188 933.072144,207.829590 
	C940.255615,204.526733 947.701477,199.997604 948.240234,191.003860 
	C948.551270,185.811935 946.651062,180.302856 944.929565,175.212708 
	C941.455444,164.940521 938.010010,154.743393 941.038513,143.760406 
	C942.774353,137.465210 945.458252,131.609497 950.213867,126.497459 
	C951.601562,132.329895 952.488831,137.458557 954.081360,142.358002 
	C955.671692,147.250702 957.584595,152.122360 960.036804,156.633209 
	C964.779541,165.357346 971.881653,166.371826 977.535767,160.959335 
	C980.816040,157.819290 982.339844,154.084946 982.025940,149.494965 
	C981.477234,141.474442 983.242126,135.519028 991.954407,131.725632 
	C1005.098938,126.002411 1011.220581,112.809143 1008.076965,97.612541 
	C1007.394592,94.313927 1007.371399,90.878929 1007.044617,87.506752 
	C1015.951660,96.904724 1020.794556,108.004433 1023.835205,119.996162 
	C1023.881348,125.690521 1023.927490,131.384888 1023.580566,137.720764 
	C1021.649109,141.888931 1020.505371,145.659653 1018.502258,148.898956 
	C1010.838257,161.292542 1002.354736,173.504852 999.771179,188.019012 
	C997.878479,198.652084 998.226562,209.729218 998.089233,220.614899 
	C997.983887,228.968185 996.193848,236.907318 992.290161,244.053070 
	C986.631348,254.411621 980.801147,264.812622 973.792053,274.267395 
	C961.353027,291.046936 948.286377,307.391083 934.877686,323.411346 
	C925.974854,334.048248 915.929138,343.721832 906.574646,353.990234 
	C901.837280,359.190521 897.128174,364.490143 893.056396,370.207794 
	C884.775818,381.835541 876.703125,393.627563 868.989746,405.637665 
	C862.886414,415.140930 858.133545,425.574188 858.117676,436.996460 
	C857.934326,568.651489 857.975403,700.306885 858.082397,831.962097 
	C858.087219,837.954163 859.292480,843.919189 863.973511,848.477234 
	C867.913025,852.313110 871.316528,856.868530 875.737976,860.004700 
	C884.418518,866.161926 893.315979,872.180115 902.734314,877.082703 
	C911.866821,881.836365 922.102600,884.464539 931.256775,889.184326 
	C949.846008,898.768677 956.060242,918.401550 943.991150,936.049438 
	C939.360352,942.820740 932.406067,946.166687 925.003723,948.835144 
	C923.507996,948.890076 922.012329,948.993225 920.516602,948.993286 
	C652.317810,949.000244 384.119019,948.999756 115.920242,948.998535 
	C115.253967,948.998535 114.587700,948.982300 113.283203,948.582764 
	C110.516586,947.455872 108.288437,946.925903 106.275551,945.951294 
	C89.385811,937.774353 82.732864,918.074768 92.508461,901.994507 
	C98.469353,892.189148 108.151192,887.308716 118.543076,884.091125 
	C140.490189,877.295959 159.099899,865.512634 174.142975,848.207275 
	C176.286697,845.741211 178.327118,842.521179 178.806503,839.402771 
	C180.024139,831.481995 180.923477,823.419922 180.910248,815.416077 
	C180.703949,690.489990 180.319992,565.564148 180.025482,440.638184 
	C180.004318,431.665466 177.896851,423.290588 174.051605,415.238129 
	C161.163879,388.249512 142.315460,365.605865 122.310287,343.765228 
	C110.403000,330.765472 98.302475,317.906281 87.047028,304.354187 
	C69.099274,282.744202 51.593231,260.758545 34.260223,238.649658 
	C20.158211,220.662018 6.757123,202.167740 2.164764,179.003860 
	C2.118610,172.309631 2.072457,165.615387 2.431664,158.258560 
	C5.003051,141.837280 13.823691,130.162399 25.255432,120.080193 
	C24.590771,126.026649 22.828768,131.646393 22.441635,137.359314 
	C21.822493,146.496094 20.585115,155.797775 24.024971,164.739105 
	C26.103416,170.141678 32.480995,174.119522 37.065704,172.957764 
	C39.900997,172.239334 42.196621,166.366318 42.055836,162.267532 
	C41.781246,154.273270 41.461979,146.211304 42.194786,138.272766 
	C42.825176,131.443710 44.897194,124.575867 51.133968,120.475800 
	C60.661911,114.212120 70.539238,108.449081 76.305908,97.930290 
	C77.070816,98.659180 77.662247,98.946999 77.742081,99.338997 
	C79.966057,110.259972 79.026855,120.458794 72.564636,130.140884 
	C67.050392,138.402664 67.441154,147.647232 72.166634,156.154816 
	C75.897820,162.872330 82.317352,164.712372 89.781731,163.010864 
	C97.618790,161.224411 105.265511,159.226089 109.859375,151.664459 
	C112.991211,146.509399 113.100563,140.878342 113.038864,135.109024 
	C112.948051,126.617172 115.154381,118.626289 120.121284,111.746780 
	C124.877899,105.158531 131.580978,101.651123 139.208176,101.111855 
	C138.174301,107.527107 136.180862,113.586830 136.463135,119.538612 
	C136.957825,129.969116 143.994034,135.387283 153.820847,136.803329 
	C161.526566,137.913712 169.030212,136.567841 171.898239,126.640312 
	C173.104141,122.466187 173.296036,118.003212 174.005280,113.680794 
	C176.799927,96.649101 189.534088,85.588791 208.450089,87.583031 
	C207.347412,89.571884 206.461563,91.399529 205.372391,93.096695 
	C198.545853,103.733917 194.371796,113.872650 201.877731,126.797493 
	C209.295776,139.570953 206.645172,151.988968 196.815308,159.219223 
	C190.106735,164.153641 181.789948,167.751953 173.653259,169.724442 
	C154.364685,174.400314 148.587418,193.588943 151.738846,207.183792 
	C155.280807,222.463333 166.598969,230.203079 180.548019,234.749985 
	C185.374908,236.323395 189.957047,232.306213 189.993591,227.081451 
	C190.021561,223.081955 190.128464,219.077103 189.973358,215.083435 
	C189.604279,205.579880 193.877502,198.307816 201.010651,192.637100 
	C203.729828,190.475403 207.161484,189.209976 211.019501,187.131409 
	C209.829224,191.141495 208.879471,193.720490 208.305176,196.380524 
	C205.377029,209.943100 207.997131,219.602417 219.912720,227.323486 
	C225.708054,231.078735 230.044739,235.695511 231.499146,243.714798 
	C232.160843,240.405075 232.450409,238.164124 233.065399,236.016373 
	C235.874039,226.207825 240.178314,217.629562 250.766281,213.944595 
	C252.825333,213.227982 255.003403,211.793457 256.272827,210.063599 
	C260.320496,204.547760 263.965973,198.736755 267.510559,193.423828 
	C267.149811,192.841141 267.883667,193.489258 267.932037,194.185028 
	C268.674225,204.861313 269.359100,215.541946 269.986694,226.225708 
	C270.282379,231.259171 268.919434,235.691391 265.794525,239.842117 
	C261.648834,245.348709 258.677826,251.437042 258.959930,258.702759 
	C259.169434,264.097687 261.739502,269.090210 265.188202,269.974121 
	C268.848358,270.912201 273.882477,267.951477 277.090485,263.753571 
	C283.717255,255.081970 284.221497,245.182693 284.097534,234.841232 
	C283.923615,220.332108 289.651093,208.370621 301.159607,199.265747 
	C303.956482,197.053024 306.620697,194.587143 308.966064,191.905487 
	C315.394958,184.554779 319.087677,176.157883 318.241425,165.778931 
	C322.073059,172.965363 325.802216,180.126099 327.803772,187.740952 
	C330.377869,197.533875 330.064087,207.267639 324.088379,216.456497 
	C320.178741,222.468460 316.933899,229.163483 314.774170,235.990051 
	C312.739014,242.422882 312.968231,249.286972 318.304718,254.837830 
	C327.789490,264.703644 341.443787,266.655151 353.197327,256.162811 
	C357.249023,252.545883 360.151703,247.772339 359.881927,242.055267 
	C359.527008,234.534302 358.671814,227.036072 357.992096,219.531647 
	C357.526001,214.385544 360.205414,211.161209 364.443726,208.942566 
	C374.646240,203.601807 378.607727,194.623795 378.953674,183.711594 
	C379.191284,176.216522 378.999237,168.707840 378.999237,161.081589 
	C379.356445,161.323074 380.233917,161.602859 380.569519,162.191544 
	C384.019318,168.242966 388.087494,174.067856 390.604767,180.495758 
	C394.526428,190.509750 396.034119,200.743607 390.542419,211.147430 
	C387.095703,217.677139 388.695618,224.140717 393.990051,229.468628 
	C397.161469,232.660049 400.385986,235.799484 403.522644,239.024521 
	C410.779175,246.485519 412.613373,255.486725 410.176575,265.280579 
	C408.852844,270.600708 406.547760,275.676697 404.582214,281.149872 
	C417.800446,273.197266 427.387848,262.247589 432.804688,248.160797 
	C436.938934,237.409348 439.176178,225.890457 435.780487,214.560455 
	C433.525909,207.038025 429.677612,199.906540 425.910583,192.941956 
	C417.716949,177.793335 416.415802,162.357712 423.052490,146.433640 
	C425.162231,141.371445 427.819794,136.537521 430.748260,130.528976 
	C432.394958,138.893921 433.378143,145.599747 435.078888,152.118362 
	C437.500488,161.399689 442.310913,169.467422 450.845490,174.225204 
	C461.639832,180.242767 471.938507,186.660751 479.358368,196.843384 
	C485.294983,204.990509 489.411346,213.847260 489.992828,224.068085 
	C490.776428,237.841736 485.644714,249.009628 476.001190,258.835052 
	C471.724091,263.192871 468.365112,269.006622 466.242065,274.768463 
	C464.096954,280.590302 463.386505,287.140717 463.130371,293.416138 
	C462.629059,305.698761 463.314240,317.892456 459.378143,330.008911 
	C457.262207,336.522308 458.558929,344.057556 463.043945,350.126007 
	C468.234314,357.148865 477.346344,362.939758 486.662872,357.823456 
	C491.682953,355.066620 494.283386,350.686340 495.907806,345.711456 
	C498.942200,336.418488 495.844879,327.282471 494.568054,318.101715 
	C493.026855,307.020477 493.384186,296.191010 500.020020,286.502655 
	C506.665985,276.799561 516.110107,270.236542 525.813171,264.087830 
	C532.811707,259.652924 540.141541,255.740829 548.169983,251.107056 
	C547.821228,252.903503 547.884216,253.480209 547.625854,253.779419 
	C538.322388,264.553436 530.621765,276.389160 525.267578,289.560089 
	C522.302856,296.853271 519.463440,304.396973 521.975037,312.667633 
	C524.352600,320.497101 531.060730,324.348419 536.831665,328.855652 
	C543.639160,334.172516 547.874329,340.709625 548.952576,349.159973 
	C550.166382,358.673157 554.816101,365.399109 563.692200,369.260651 
	C572.621033,373.145172 581.133606,372.662079 588.738220,366.520172 
	C591.858459,364.000122 594.678772,360.350952 591.959656,355.871124 
	C589.536865,351.879395 586.662781,348.152435 583.868225,344.397614 
	C579.299805,338.259399 574.058960,332.536011 570.168945,326.002258 
	C566.160461,319.269470 567.611572,309.066833 574.181274,304.373352 
	C576.411316,302.780212 578.923767,301.575134 581.337402,300.247681 
	C585.933228,297.720062 589.089966,291.410492 587.846191,286.619995 
	C585.778625,278.656860 583.277344,270.798889 581.435913,262.786926 
	C579.956909,256.352112 577.522217,249.545761 582.866882,243.625748 
	C586.135437,240.005371 589.945251,236.871933 593.193604,233.235321 
	C600.672119,224.862701 604.931030,215.636612 600.106140,204.230148 
	C599.171204,202.019775 598.790039,199.575150 598.153381,197.238586 
	C598.539673,197.002197 598.926025,196.765793 599.312317,196.529404 
	C603.356934,200.998642 607.779114,205.185898 611.370300,209.993851 
	C619.709717,221.158936 625.195007,233.065247 619.904907,247.543716 
	C616.510620,256.833527 617.435242,266.165100 621.605286,275.069855 
	C623.905762,279.982056 625.070679,279.845490 629.133240,276.507782 
	C633.126160,273.227264 637.423401,270.209930 641.930969,267.692780 
	C646.605896,265.082153 651.718689,264.864502 656.050781,268.609528 
	C663.410339,274.971893 671.596252,279.811951 680.959534,282.383148 
	C685.542969,283.641815 691.035217,284.597443 694.337402,280.599457 
	C698.046753,276.108765 699.878784,270.372864 698.650574,264.132416 
	C697.305237,257.297272 693.581909,252.092957 688.851501,247.093460 
	C685.254456,243.291779 682.396423,238.575806 680.053284,233.848450 
	C675.470215,224.601852 676.442261,214.692703 678.118591,204.946838 
	C679.079407,199.360687 680.755554,193.897598 682.401428,187.189880 
	C683.099426,191.142426 683.428284,193.735245 684.024841,196.264938 
	C688.123291,213.645035 696.541321,226.090302 716.091614,229.350540 
	C726.751099,231.128128 736.237610,238.172699 738.472168,249.528061 
	C741.026245,262.506714 748.707153,270.718811 758.953918,277.242279 
	C763.953857,280.425476 769.829041,283.017609 775.750305,278.984650 
	C779.251160,276.600220 783.015198,274.108948 785.473633,270.787018 
	C791.107971,263.173584 791.119934,254.220032 781.463928,248.800995 
	C779.768677,247.849625 778.407898,246.301987 776.712280,245.351410 
	C772.725586,243.116348 771.538879,239.336945 771.045227,235.279861 
	C770.509949,230.880737 770.415344,226.429886 769.977844,222.016541 
	C769.121643,213.378250 764.189880,207.779999 755.629272,206.041977 
	C751.018738,205.105942 746.314941,204.607346 741.639648,204.019058 
	C738.099792,203.573669 734.877625,202.384201 734.900818,198.338470 
	C734.936768,192.078934 734.995239,185.708618 736.139343,179.590088 
	C738.333313,167.857544 743.655701,157.993530 754.620605,151.758133 
	C762.065247,147.524567 766.816833,140.898117 767.976929,132.258591 
	C769.497070,120.937798 770.684265,109.572121 771.995056,98.223488 
	C772.605408,92.939072 773.790100,87.881699 778.193115,84.348381 
	C781.715149,81.522011 785.389648,78.885658 788.996460,76.164978 
M387.494141,883.213196 
	C401.108459,878.338501 415.133850,876.449158 429.595551,876.539551 
	C464.210602,876.755920 498.828888,876.748352 533.443665,876.509827 
	C541.882568,876.451660 550.421387,875.773193 558.728333,874.318237 
	C591.530273,868.572937 618.210083,851.311523 641.932129,828.858704 
	C655.196045,816.304565 665.414490,801.347168 675.128540,786.830200 
	C675.499817,809.043640 674.602661,831.134949 668.024597,852.580811 
	C664.016663,865.647522 658.488586,877.984131 647.098633,886.376709 
	C631.827026,897.629395 615.293030,906.282349 596.429260,910.131958 
	C591.685730,911.100098 587.253479,913.767029 582.821960,915.945801 
	C581.920410,916.388977 581.074524,918.276428 581.290283,919.259521 
	C581.478516,920.117310 583.126526,921.010254 584.257507,921.230530 
	C586.525024,921.672180 588.879822,921.820374 591.198730,921.820923 
	C698.686890,921.846619 806.175110,921.844727 913.663269,921.827271 
	C915.145508,921.827026 916.822937,921.978088 918.059753,921.359558 
	C919.557556,920.610474 921.243713,919.311951 921.747070,917.867432 
	C922.024231,917.072144 920.294495,914.959412 919.032227,914.356934 
	C914.540649,912.213196 909.946655,910.212036 905.238037,908.607300 
	C886.377319,902.179504 869.570068,892.334839 854.844727,878.916931 
	C841.894531,867.116577 830.858093,854.255920 830.402466,835.426575 
	C830.273621,830.100403 829.868774,824.776917 829.867432,819.452148 
	C829.836304,695.299133 829.885620,571.146118 829.799988,446.993164 
	C829.786438,427.369934 834.451660,409.227692 844.344482,392.221405 
	C857.391968,369.791962 872.651672,349.066925 890.551025,330.311920 
	C913.931030,305.814209 935.952026,280.205475 955.179688,252.279648 
	C958.199890,247.893158 961.257324,243.498093 963.793518,238.832886 
	C964.582825,237.380905 963.710754,235.025742 963.599243,233.084061 
	C961.828369,233.347305 959.904358,233.269012 958.331604,233.974136 
	C956.888062,234.621292 955.810181,236.099213 954.593201,237.234650 
	C920.920349,268.651642 882.877380,292.886230 838.901794,307.230774 
	C802.225769,319.194275 764.277954,323.766876 725.974060,325.975342 
	C691.003784,327.991577 656.070618,327.267090 621.190491,324.019012 
	C616.850525,323.614868 612.500000,323.323608 608.154358,322.980042 
	C607.960266,323.399139 607.766174,323.818268 607.572021,324.237366 
	C608.638306,325.578308 609.548645,327.091003 610.800110,328.228149 
	C614.620117,331.699188 618.817627,334.783722 622.424805,338.454468 
	C632.664185,348.874359 643.437195,358.898315 652.617859,370.200928 
	C667.544678,388.577850 670.995850,411.168762 672.891052,433.919617 
	C673.743896,444.157379 673.723328,454.467926 673.461548,464.271759 
	C672.544617,463.087860 671.618347,461.911102 670.712280,460.718933 
	C649.694275,433.064301 624.654053,410.534698 591.497803,398.245880 
	C566.418579,388.950714 540.352966,384.830078 513.792053,384.509186 
	C470.513855,383.986328 427.226501,384.227020 383.943054,384.131317 
	C381.450623,384.125824 378.958435,383.993103 376.717590,383.222687 
	C381.920441,375.515045 386.242432,366.980682 392.525177,360.286591 
	C402.869110,349.265411 414.495392,339.449524 425.545258,329.087311 
	C427.129883,327.601288 428.514496,325.902039 430.623566,323.616791 
	C428.319427,323.431396 427.199615,323.192169 426.104431,323.275787 
	C412.001068,324.352325 397.919617,325.939789 383.797028,326.499512 
	C340.122467,328.230591 296.630219,326.538330 253.273956,320.237701 
	C195.080032,311.780914 143.578659,288.840393 98.548065,251.192398 
	C92.165543,245.856293 86.243660,239.969009 79.856789,234.638504 
	C78.551941,233.549500 76.117027,233.814514 74.203026,233.455368 
	C74.206062,235.253754 74.034370,237.076981 74.285027,238.840164 
	C74.412498,239.736816 75.305641,240.521835 75.843208,241.363358 
	C92.212135,266.988007 111.017136,290.754242 131.698837,312.973663 
	C153.968704,336.899323 175.812607,361.001312 192.338623,389.544128 
	C202.813110,407.635101 208.253006,426.561218 208.228577,447.452362 
	C208.083603,571.450012 208.160233,695.447937 208.143967,819.445740 
	C208.143372,823.941956 208.050537,828.443115 207.829300,832.933533 
	C207.180771,846.097351 203.469635,857.939636 194.295670,867.998596 
	C177.819931,886.063660 158.498123,899.695007 135.429092,907.972656 
	C129.807022,909.989929 124.290375,912.326599 118.834770,914.761780 
	C117.677956,915.278137 116.041245,917.273621 116.297676,917.876892 
	C116.852943,919.183105 118.370026,920.250732 119.726410,920.987671 
	C120.669006,921.499695 121.999168,921.401367 123.156128,921.401123 
	C177.654526,921.390442 232.152939,921.360596 286.891205,922.034119 
	C288.892487,932.463867 295.677765,940.018127 305.411041,941.716614 
	C315.580475,943.491150 323.995972,940.251709 330.161926,931.668030 
	C332.666901,928.180908 335.441162,924.887207 339.018829,921.561523 
	C374.683899,921.567749 410.348938,921.584534 446.013977,921.557495 
	C448.503601,921.555664 451.013489,921.363770 453.473328,920.991882 
	C454.615601,920.819275 455.660492,920.002563 457.231384,919.245667 
	C452.836761,912.675232 446.383972,911.327881 440.143250,910.021912 
	C420.120087,905.831909 402.806671,896.301697 387.494141,883.213196 
z"/>
<path fill="#000000" opacity="1.000000" stroke="none" 
	d="
M788.532227,76.088379 
	C785.389648,78.885658 781.715149,81.522011 778.193115,84.348381 
	C773.790100,87.881699 772.605408,92.939072 771.995056,98.223488 
	C770.684265,109.572121 769.497070,120.937798 767.976929,132.258591 
	C766.816833,140.898117 762.065247,147.524567 754.620605,151.758133 
	C743.655701,157.993530 738.333313,167.857544 736.139343,179.590088 
	C734.995239,185.708618 734.936768,192.078934 734.900818,198.338470 
	C734.877625,202.384201 738.099792,203.573669 741.639648,204.019058 
	C746.314941,204.607346 751.018738,205.105942 755.629272,206.041977 
	C764.189880,207.779999 769.121643,213.378250 769.977844,222.016541 
	C770.415344,226.429886 770.509949,230.880737 771.045227,235.279861 
	C771.538879,239.336945 772.725586,243.116348 776.712280,245.351410 
	C778.407898,246.301987 779.768677,247.849625 781.463928,248.800995 
	C791.119934,254.220032 791.107971,263.173584 785.473633,270.787018 
	C783.015198,274.108948 779.251160,276.600220 775.750305,278.984650 
	C769.829041,283.017609 763.953857,280.425476 758.953918,277.242279 
	C748.707153,270.718811 741.026245,262.506714 738.472168,249.528061 
	C736.237610,238.172699 726.751099,231.128128 716.091614,229.350540 
	C696.541321,226.090302 688.123291,213.645035 684.024841,196.264938 
	C683.428284,193.735245 683.099426,191.142426 682.401428,187.189880 
	C680.755554,193.897598 679.079407,199.360687 678.118591,204.946838 
	C676.442261,214.692703 675.470215,224.601852 680.053284,233.848450 
	C682.396423,238.575806 685.254456,243.291779 688.851501,247.093460 
	C693.581909,252.092957 697.305237,257.297272 698.650574,264.132416 
	C699.878784,270.372864 698.046753,276.108765 694.337402,280.599457 
	C691.035217,284.597443 685.542969,283.641815 680.959534,282.383148 
	C671.596252,279.811951 663.410339,274.971893 656.050781,268.609528 
	C651.718689,264.864502 646.605896,265.082153 641.930969,267.692780 
	C637.423401,270.209930 633.126160,273.227264 629.133240,276.507782 
	C625.070679,279.845490 623.905762,279.982056 621.605286,275.069855 
	C617.435242,266.165100 616.510620,256.833527 619.904907,247.543716 
	C625.195007,233.065247 619.709717,221.158936 611.370300,209.993851 
	C607.779114,205.185898 603.356934,200.998642 599.312317,196.529404 
	C598.926025,196.765793 598.539673,197.002197 598.153381,197.238586 
	C598.790039,199.575150 599.171204,202.019775 600.106140,204.230148 
	C604.931030,215.636612 600.672119,224.862701 593.193604,233.235321 
	C589.945251,236.871933 586.135437,240.005371 582.866882,243.625748 
	C577.522217,249.545761 579.956909,256.352112 581.435913,262.786926 
	C583.277344,270.798889 585.778625,278.656860 587.846191,286.619995 
	C589.089966,291.410492 585.933228,297.720062 581.337402,300.247681 
	C578.923767,301.575134 576.411316,302.780212 574.181274,304.373352 
	C567.611572,309.066833 566.160461,319.269470 570.168945,326.002258 
	C574.058960,332.536011 579.299805,338.259399 583.868225,344.397614 
	C586.662781,348.152435 589.536865,351.879395 591.959656,355.871124 
	C594.678772,360.350952 591.858459,364.000122 588.738220,366.520172 
	C581.133606,372.662079 572.621033,373.145172 563.692200,369.260651 
	C554.816101,365.399109 550.166382,358.673157 548.952576,349.159973 
	C547.874329,340.709625 543.639160,334.172516 536.831665,328.855652 
	C531.060730,324.348419 524.352600,320.497101 521.975037,312.667633 
	C519.463440,304.396973 522.302856,296.853271 525.267578,289.560089 
	C530.621765,276.389160 538.322388,264.553436 547.625854,253.779419 
	C547.884216,253.480209 547.821228,252.903503 548.169983,251.107056 
	C540.141541,255.740829 532.811707,259.652924 525.813171,264.087830 
	C516.110107,270.236542 506.665985,276.799561 500.020020,286.502655 
	C493.384186,296.191010 493.026855,307.020477 494.568054,318.101715 
	C495.844879,327.282471 498.942200,336.418488 495.907806,345.711456 
	C494.283386,350.686340 491.682953,355.066620 486.662872,357.823456 
	C477.346344,362.939758 468.234314,357.148865 463.043945,350.126007 
	C458.558929,344.057556 457.262207,336.522308 459.378143,330.008911 
	C463.314240,317.892456 462.629059,305.698761 463.130371,293.416138 
	C463.386505,287.140717 464.096954,280.590302 466.242065,274.768463 
	C468.365112,269.006622 471.724091,263.192871 476.001190,258.835052 
	C485.644714,249.009628 490.776428,237.841736 489.992828,224.068085 
	C489.411346,213.847260 485.294983,204.990509 479.358368,196.843384 
	C471.938507,186.660751 461.639832,180.242767 450.845490,174.225204 
	C442.310913,169.467422 437.500488,161.399689 435.078888,152.118362 
	C433.378143,145.599747 432.394958,138.893921 430.748260,130.528976 
	C427.819794,136.537521 425.162231,141.371445 423.052490,146.433640 
	C416.415802,162.357712 417.716949,177.793335 425.910583,192.941956 
	C429.677612,199.906540 433.525909,207.038025 435.780487,214.560455 
	C439.176178,225.890457 436.938934,237.409348 432.804688,248.160797 
	C427.387848,262.247589 417.800446,273.197266 404.582214,281.149872 
	C406.547760,275.676697 408.852844,270.600708 410.176575,265.280579 
	C412.613373,255.486725 410.779175,246.485519 403.522644,239.024521 
	C400.385986,235.799484 397.161469,232.660049 393.990051,229.468628 
	C388.695618,224.140717 387.095703,217.677139 390.542419,211.147430 
	C396.034119,200.743607 394.526428,190.509750 390.604767,180.495758 
	C388.087494,174.067856 384.019318,168.242966 380.569519,162.191544 
	C380.233917,161.602859 379.356445,161.323074 378.999237,161.081589 
	C378.999237,168.707840 379.191284,176.216522 378.953674,183.711594 
	C378.607727,194.623795 374.646240,203.601807 364.443726,208.942566 
	C360.205414,211.161209 357.526001,214.385544 357.992096,219.531647 
	C358.671814,227.036072 359.527008,234.534302 359.881927,242.055267 
	C360.151703,247.772339 357.249023,252.545883 353.197327,256.162811 
	C341.443787,266.655151 327.789490,264.703644 318.304718,254.837830 
	C312.968231,249.286972 312.739014,242.422882 314.774170,235.990051 
	C316.933899,229.163483 320.178741,222.468460 324.088379,216.456497 
	C330.064087,207.267639 330.377869,197.533875 327.803772,187.740952 
	C325.802216,180.126099 322.073059,172.965363 318.241425,165.778931 
	C319.087677,176.157883 315.394958,184.554779 308.966064,191.905487 
	C306.620697,194.587143 303.956482,197.053024 301.159607,199.265747 
	C289.651093,208.370621 283.923615,220.332108 284.097534,234.841232 
	C284.221497,245.182693 283.717255,255.081970 277.090485,263.753571 
	C273.882477,267.951477 268.848358,270.912201 265.188202,269.974121 
	C261.739502,269.090210 259.169434,264.097687 258.959930,258.702759 
	C258.677826,251.437042 261.648834,245.348709 265.794525,239.842117 
	C268.919434,235.691391 270.282379,231.259171 269.986694,226.225708 
	C269.359100,215.541946 268.674225,204.861313 267.932037,194.185028 
	C267.883667,193.489258 267.149811,192.841141 267.510559,193.423828 
	C263.965973,198.736755 260.320496,204.547760 256.272827,210.063599 
	C255.003403,211.793457 252.825333,213.227982 250.766281,213.944595 
	C240.178314,217.629562 235.874039,226.207825 233.065399,236.016373 
	C232.450409,238.164124 232.160843,240.405075 231.499146,243.714798 
	C230.044739,235.695511 225.708054,231.078735 219.912720,227.323486 
	C207.997131,219.602417 205.377029,209.943100 208.305176,196.380524 
	C208.879471,193.720490 209.829224,191.141495 211.019501,187.131409 
	C207.161484,189.209976 203.729828,190.475403 201.010651,192.637100 
	C193.877502,198.307816 189.604279,205.579880 189.973358,215.083435 
	C190.128464,219.077103 190.021561,223.081955 189.993591,227.081451 
	C189.957047,232.306213 185.374908,236.323395 180.548019,234.749985 
	C166.598969,230.203079 155.280807,222.463333 151.738846,207.183792 
	C148.587418,193.588943 154.364685,174.400314 173.653259,169.724442 
	C181.789948,167.751953 190.106735,164.153641 196.815308,159.219223 
	C206.645172,151.988968 209.295776,139.570953 201.877731,126.797493 
	C194.371796,113.872650 198.545853,103.733917 205.372391,93.096695 
	C206.461563,91.399529 207.347412,89.571884 208.450089,87.583031 
	C189.534088,85.588791 176.799927,96.649101 174.005280,113.680794 
	C173.296036,118.003212 173.104141,122.466187 171.898239,126.640312 
	C169.030212,136.567841 161.526566,137.913712 153.820847,136.803329 
	C143.994034,135.387283 136.957825,129.969116 136.463135,119.538612 
	C136.180862,113.586830 138.174301,107.527107 139.208176,101.111855 
	C131.580978,101.651123 124.877899,105.158531 120.121284,111.746780 
	C115.154381,118.626289 112.948051,126.617172 113.038864,135.109024 
	C113.100563,140.878342 112.991211,146.509399 109.859375,151.664459 
	C105.265511,159.226089 97.618790,161.224411 89.781731,163.010864 
	C82.317352,164.712372 75.897820,162.872330 72.166634,156.154816 
	C67.441154,147.647232 67.050392,138.402664 72.564636,130.140884 
	C79.026855,120.458794 79.966057,110.259972 77.742081,99.338997 
	C77.662247,98.946999 77.070816,98.659180 76.305908,97.930290 
	C70.539238,108.449081 60.661911,114.212120 51.133968,120.475800 
	C44.897194,124.575867 42.825176,131.443710 42.194786,138.272766 
	C41.461979,146.211304 41.781246,154.273270 42.055836,162.267532 
	C42.196621,166.366318 39.900997,172.239334 37.065704,172.957764 
	C32.480995,174.119522 26.103416,170.141678 24.024971,164.739105 
	C20.585115,155.797775 21.822493,146.496094 22.441635,137.359314 
	C22.828768,131.646393 24.590771,126.026649 25.255432,120.080193 
	C13.823691,130.162399 5.003051,141.837280 2.500849,157.795975 
	C2.164671,130.865341 2.164671,103.734695 2.164671,76.011765 
	C264.148621,76.011765 526.108337,76.011765 788.532227,76.088379 
z"/>
<path fill="#000000" opacity="1.000000" stroke="none" 
	d="
M2.088254,179.468155 
	C6.757123,202.167740 20.158211,220.662018 34.260223,238.649658 
	C51.593231,260.758545 69.099274,282.744202 87.047028,304.354187 
	C98.302475,317.906281 110.403000,330.765472 122.310287,343.765228 
	C142.315460,365.605865 161.163879,388.249512 174.051605,415.238129 
	C177.896851,423.290588 180.004318,431.665466 180.025482,440.638184 
	C180.319992,565.564148 180.703949,690.489990 180.910248,815.416077 
	C180.923477,823.419922 180.024139,831.481995 178.806503,839.402771 
	C178.327118,842.521179 176.286697,845.741211 174.142975,848.207275 
	C159.099899,865.512634 140.490189,877.295959 118.543076,884.091125 
	C108.151192,887.308716 98.469353,892.189148 92.508461,901.994507 
	C82.732864,918.074768 89.385811,937.774353 106.275551,945.951294 
	C108.288437,946.925903 110.516586,947.455872 112.820572,948.513550 
	C111.167953,948.890198 109.339737,948.992554 107.511490,948.993042 
	C72.545570,949.002441 37.579655,949.000000 2.011745,949.000000 
	C2.011745,692.524780 2.011745,436.228638 2.088254,179.468155 
z"/>
<path fill="#000000" opacity="1.000000" stroke="none" 
	d="
M925.468018,948.911682 
	C932.406067,946.166687 939.360352,942.820740 943.991150,936.049438 
	C956.060242,918.401550 949.846008,898.768677 931.256775,889.184326 
	C922.102600,884.464539 911.866821,881.836365 902.734314,877.082703 
	C893.315979,872.180115 884.418518,866.161926 875.737976,860.004700 
	C871.316528,856.868530 867.913025,852.313110 863.973511,848.477234 
	C859.292480,843.919189 858.087219,837.954163 858.082397,831.962097 
	C857.975403,700.306885 857.934326,568.651489 858.117676,436.996460 
	C858.133545,425.574188 862.886414,415.140930 868.989746,405.637665 
	C876.703125,393.627563 884.775818,381.835541 893.056396,370.207794 
	C897.128174,364.490143 901.837280,359.190521 906.574646,353.990234 
	C915.929138,343.721832 925.974854,334.048248 934.877686,323.411346 
	C948.286377,307.391083 961.353027,291.046936 973.792053,274.267395 
	C980.801147,264.812622 986.631348,254.411621 992.290161,244.053070 
	C996.193848,236.907318 997.983887,228.968185 998.089233,220.614899 
	C998.226562,209.729218 997.878479,198.652084 999.771179,188.019012 
	C1002.354736,173.504852 1010.838257,161.292542 1018.502258,148.898956 
	C1020.505371,145.659653 1021.649109,141.888931 1023.511353,138.183060 
	C1023.890137,139.832092 1023.993164,141.660339 1023.993225,143.488602 
	C1024.000366,410.027405 1024.000000,676.566223 1024.000000,943.105042 
	C1024.000000,944.905640 1024.000000,946.706299 1024.000000,948.988220 
	C991.114502,948.988220 958.523376,948.988220 925.468018,948.911682 
z"/>
<path fill="#000000" opacity="1.000000" stroke="none" 
	d="
M1023.911743,119.531860 
	C1020.794556,108.004433 1015.951660,96.904724 1007.044617,87.506752 
	C1007.371399,90.878929 1007.394592,94.313927 1008.076965,97.612541 
	C1011.220581,112.809143 1005.098938,126.002411 991.954407,131.725632 
	C983.242126,135.519028 981.477234,141.474442 982.025940,149.494965 
	C982.339844,154.084946 980.816040,157.819290 977.535767,160.959335 
	C971.881653,166.371826 964.779541,165.357346 960.036804,156.633209 
	C957.584595,152.122360 955.671692,147.250702 954.081360,142.358002 
	C952.488831,137.458557 951.601562,132.329895 950.213867,126.497459 
	C945.458252,131.609497 942.774353,137.465210 941.038513,143.760406 
	C938.010010,154.743393 941.455444,164.940521 944.929565,175.212708 
	C946.651062,180.302856 948.551270,185.811935 948.240234,191.003860 
	C947.701477,199.997604 940.255615,204.526733 933.072144,207.829590 
	C912.544067,217.268188 890.372131,203.831116 884.089417,184.262589 
	C881.923828,177.517502 880.096497,170.643753 884.062134,163.926392 
	C885.462219,161.554840 887.518005,159.580582 889.135254,157.325211 
	C896.036499,147.701157 894.842407,128.010284 888.157166,118.956841 
	C888.140381,128.017471 886.025574,135.925293 878.992188,141.353073 
	C875.481384,144.062424 871.472595,146.629425 867.278564,147.849777 
	C857.382690,150.729172 853.805908,157.875244 854.181091,166.516312 
	C854.495605,173.762543 856.763123,180.903275 857.488708,188.158463 
	C858.147278,194.743530 857.977661,201.419571 858.007141,208.056259 
	C858.023987,211.856003 856.178589,215.143204 852.509521,215.830795 
	C847.365417,216.794830 841.799438,215.768311 839.201050,210.893845 
	C836.619873,206.051712 835.166687,200.435364 834.143616,194.984955 
	C833.149597,189.689133 833.805603,184.090179 832.880920,178.773239 
	C831.528198,170.995667 827.231812,168.420120 819.907898,170.602478 
	C817.136658,171.428268 814.488770,172.660919 811.762329,173.646240 
	C807.652283,175.131622 803.643555,176.177200 799.931458,172.497391 
	C795.895752,168.496674 793.929688,163.782928 795.403198,158.277405 
	C798.643188,146.171951 799.377136,134.045746 795.891968,121.956924 
	C794.794617,118.150673 792.974243,114.264183 790.514221,111.191513 
	C781.788269,100.292519 782.970825,92.033730 788.864685,80.671394 
	C789.530273,79.388153 790.277222,78.147064 790.994263,76.526138 
	C791.996277,76.110580 792.990417,76.007034 793.984619,76.006935 
	C869.365845,75.999413 944.747009,76.000015 1020.128235,76.000008 
	C1021.259033,76.000008 1022.389832,76.000015 1023.988220,76.000015 
	C1023.988220,90.559769 1023.988220,104.813667 1023.911743,119.531860 
z"/>
<path fill="#550100" opacity="1.000000" stroke="none" 
	d="
M674.099060,464.745453 
	C673.723328,454.467926 673.743896,444.157379 672.891052,433.919617 
	C670.995850,411.168762 667.544678,388.577850 652.617859,370.200928 
	C643.437195,358.898315 632.664185,348.874359 622.424805,338.454468 
	C618.817627,334.783722 614.620117,331.699188 610.800110,328.228149 
	C609.548645,327.091003 608.638306,325.578308 607.572021,324.237366 
	C607.766174,323.818268 607.960266,323.399139 608.154358,322.980042 
	C612.500000,323.323608 616.850525,323.614868 621.190491,324.019012 
	C656.070618,327.267090 691.003784,327.991577 725.974060,325.975342 
	C764.277954,323.766876 802.225769,319.194275 838.901794,307.230774 
	C882.877380,292.886230 920.920349,268.651642 954.593201,237.234650 
	C955.810181,236.099213 956.888062,234.621292 958.331604,233.974136 
	C959.904358,233.269012 961.828369,233.347305 963.599243,233.084061 
	C963.710754,235.025742 964.582825,237.380905 963.793518,238.832886 
	C961.257324,243.498093 958.199890,247.893158 955.179688,252.279648 
	C935.952026,280.205475 913.931030,305.814209 890.551025,330.311920 
	C872.651672,349.066925 857.391968,369.791962 844.344482,392.221405 
	C834.451660,409.227692 829.786438,427.369934 829.799988,446.993164 
	C829.885620,571.146118 829.836304,695.299133 829.867432,819.452148 
	C829.868774,824.776917 830.273621,830.100403 830.402466,835.426575 
	C830.858093,854.255920 841.894531,867.116577 854.844727,878.916931 
	C869.570068,892.334839 886.377319,902.179504 905.238037,908.607300 
	C909.946655,910.212036 914.540649,912.213196 919.032227,914.356934 
	C920.294495,914.959412 922.024231,917.072144 921.747070,917.867432 
	C921.243713,919.311951 919.557556,920.610474 918.059753,921.359558 
	C916.822937,921.978088 915.145508,921.827026 913.663269,921.827271 
	C806.175110,921.844727 698.686890,921.846619 591.198730,921.820923 
	C588.879822,921.820374 586.525024,921.672180 584.257507,921.230530 
	C583.126526,921.010254 581.478516,920.117310 581.290283,919.259521 
	C581.074524,918.276428 581.920410,916.388977 582.821960,915.945801 
	C587.253479,913.767029 591.685730,911.100098 596.429260,910.131958 
	C615.293030,906.282349 631.827026,897.629395 647.098633,886.376709 
	C658.488586,877.984131 664.016663,865.647522 668.024597,852.580811 
	C674.602661,831.134949 675.499817,809.043640 675.118530,786.024963 
	C697.197937,744.974792 710.148865,701.905579 711.947998,656.094238 
	C713.021790,628.753296 711.819702,601.262695 710.405762,573.903137 
	C709.246155,551.466125 704.624756,529.477478 697.044678,508.192261 
	C691.485413,492.581329 683.332153,478.390411 674.099060,464.745453 
z"/>
<path fill="#540100" opacity="1.000000" stroke="none" 
	d="
M286.651337,921.332947 
	C232.152939,921.360596 177.654526,921.390442 123.156128,921.401123 
	C121.999168,921.401367 120.669006,921.499695 119.726410,920.987671 
	C118.370026,920.250732 116.852943,919.183105 116.297676,917.876892 
	C116.041245,917.273621 117.677956,915.278137 118.834770,914.761780 
	C124.290375,912.326599 129.807022,909.989929 135.429092,907.972656 
	C158.498123,899.695007 177.819931,886.063660 194.295670,867.998596 
	C203.469635,857.939636 207.180771,846.097351 207.829300,832.933533 
	C208.050537,828.443115 208.143372,823.941956 208.143967,819.445740 
	C208.160233,695.447937 208.083603,571.450012 208.228577,447.452362 
	C208.253006,426.561218 202.813110,407.635101 192.338623,389.544128 
	C175.812607,361.001312 153.968704,336.899323 131.698837,312.973663 
	C111.017136,290.754242 92.212135,266.988007 75.843208,241.363358 
	C75.305641,240.521835 74.412498,239.736816 74.285027,238.840164 
	C74.034370,237.076981 74.206062,235.253754 74.203033,233.455368 
	C76.117027,233.814514 78.551941,233.549500 79.856789,234.638504 
	C86.243660,239.969009 92.165543,245.856293 98.548065,251.192398 
	C143.578659,288.840393 195.080032,311.780914 253.273956,320.237701 
	C296.630219,326.538330 340.122467,328.230591 383.797028,326.499512 
	C397.919617,325.939789 412.001068,324.352325 426.104431,323.275787 
	C427.199615,323.192169 428.319427,323.431396 430.623566,323.616791 
	C428.514496,325.902039 427.129883,327.601288 425.545258,329.087311 
	C414.495392,339.449524 402.869110,349.265411 392.525177,360.286591 
	C386.242432,366.980682 381.920441,375.515045 376.177063,383.664764 
	C365.809540,384.124054 355.982269,384.106201 346.155518,384.169373 
	C338.049896,384.221466 331.182861,387.089020 326.156952,393.609070 
	C312.275848,411.616791 322.992584,438.116486 345.322357,441.101074 
	C356.842926,442.640900 361.227661,447.231750 362.101410,458.829987 
	C362.438538,463.305115 362.796875,467.794556 362.792297,472.277130 
	C362.720612,542.728455 362.577911,613.179810 362.481537,683.631104 
	C362.442352,712.280762 362.488892,740.930481 362.460663,769.580200 
	C362.456238,774.070557 363.088501,778.789978 361.926086,782.988037 
	C360.709778,787.380615 358.676056,792.542542 355.293884,795.183960 
	C324.993103,818.847534 305.206879,849.549500 294.061981,885.912048 
	C290.541870,897.397278 289.063904,909.508301 286.651337,921.332947 
z"/>
<path fill="#FCFCFB" opacity="1.000000" stroke="none" 
	d="
M286.771271,921.683533 
	C289.063904,909.508301 290.541870,897.397278 294.061981,885.912048 
	C305.206879,849.549500 324.993103,818.847534 355.293884,795.183960 
	C358.676056,792.542542 360.709778,787.380615 361.926086,782.988037 
	C363.088501,778.789978 362.456238,774.070557 362.460663,769.580200 
	C362.488892,740.930481 362.442352,712.280762 362.481537,683.631104 
	C362.577911,613.179810 362.720612,542.728455 362.792297,472.277130 
	C362.796875,467.794556 362.438538,463.305115 362.101410,458.829987 
	C361.227661,447.231750 356.842926,442.640900 345.322357,441.101074 
	C322.992584,438.116486 312.275848,411.616791 326.156952,393.609070 
	C331.182861,387.089020 338.049896,384.221466 346.155518,384.169373 
	C355.982269,384.106201 365.809540,384.124054 376.051361,384.013184 
	C378.958435,383.993103 381.450623,384.125824 383.943054,384.131317 
	C427.226501,384.227020 470.513855,383.986328 513.792053,384.509186 
	C540.352966,384.830078 566.418579,388.950714 591.497803,398.245880 
	C624.654053,410.534698 649.694275,433.064301 670.712280,460.718933 
	C671.618347,461.911102 672.544617,463.087860 673.780273,464.508606 
	C683.332153,478.390411 691.485413,492.581329 697.044678,508.192261 
	C704.624756,529.477478 709.246155,551.466125 710.405762,573.903137 
	C711.819702,601.262695 713.021790,628.753296 711.947998,656.094238 
	C710.148865,701.905579 697.197937,744.974792 675.028564,785.556885 
	C665.414490,801.347168 655.196045,816.304565 641.932129,828.858704 
	C618.210083,851.311523 591.530273,868.572937 558.728333,874.318237 
	C550.421387,875.773193 541.882568,876.451660 533.443665,876.509827 
	C498.828888,876.748352 464.210602,876.755920 429.595551,876.539551 
	C415.133850,876.449158 401.108459,878.338501 386.860291,883.522095 
	C366.057434,891.119629 350.972626,904.903931 338.092896,921.505493 
	C335.441162,924.887207 332.666901,928.180908 330.161926,931.668030 
	C323.995972,940.251709 315.580475,943.491150 305.411041,941.716614 
	C295.677765,940.018127 288.892487,932.463867 286.771271,921.683533 
M383.517731,533.499634 
	C383.517731,614.662109 383.530151,695.824524 383.505768,776.987000 
	C383.501617,790.749451 379.768524,803.035950 368.405029,811.833069 
	C333.991730,838.474060 315.932922,874.559753 307.877594,916.413940 
	C307.604706,917.831787 308.704620,919.513855 309.164673,921.072815 
	C310.651794,920.326599 312.575043,919.943604 313.551086,918.771729 
	C317.914978,913.532043 321.827301,907.913879 326.229858,902.709106 
	C352.758087,871.346619 386.425354,855.495361 427.698639,855.775269 
	C463.195312,856.015930 498.697723,856.070923 534.191284,855.662415 
	C543.747498,855.552368 553.558167,854.507324 562.774414,852.078918 
	C594.829651,843.632568 620.635559,824.974915 640.552185,799.074707 
	C674.659363,754.720520 689.322632,703.203064 691.853210,648.012329 
	C693.180908,619.056030 691.832947,590.097046 688.110046,561.284180 
	C683.607178,526.434448 672.296570,494.620117 649.319702,467.242035 
	C631.134338,445.573364 610.612549,427.566345 583.681946,417.621674 
	C558.830078,408.444641 533.024536,405.185455 506.782196,405.072540 
	C454.285675,404.846619 401.787537,405.005524 349.290070,405.005524 
	C348.456787,405.005524 347.619598,405.057953 346.790863,404.996582 
	C343.471802,404.750732 341.702454,406.045898 341.988434,409.593719 
	C342.095215,410.918335 342.162415,412.281067 341.977203,413.588104 
	C341.325745,418.184967 343.087646,419.876251 347.864685,420.471344 
	C362.127686,422.248108 374.372070,427.661530 379.462097,442.542358 
	C381.268677,447.823944 382.734894,453.503143 382.852417,459.032806 
	C383.372864,483.515381 383.346313,508.009583 383.517731,533.499634 
z"/>
<path fill="#550101" opacity="1.000000" stroke="none" 
	d="
M338.555878,921.533569 
	C350.972626,904.903931 366.057434,891.119629 386.603333,883.767334 
	C402.806671,896.301697 420.120087,905.831909 440.143250,910.021912 
	C446.383972,911.327881 452.836761,912.675232 457.231384,919.245667 
	C455.660492,920.002563 454.615601,920.819275 453.473328,920.991882 
	C451.013489,921.363770 448.503601,921.555664 446.013977,921.557495 
	C410.348938,921.584534 374.683899,921.567749 338.555878,921.533569 
z"/>
<path fill="#010101" opacity="1.000000" stroke="none" 
	d="
M383.517700,532.999634 
	C383.346313,508.009583 383.372864,483.515381 382.852417,459.032806 
	C382.734894,453.503143 381.268677,447.823944 379.462097,442.542358 
	C374.372070,427.661530 362.127686,422.248108 347.864685,420.471344 
	C343.087646,419.876251 341.325745,418.184967 341.977203,413.588104 
	C342.162415,412.281067 342.095215,410.918335 341.988434,409.593719 
	C341.702454,406.045898 343.471802,404.750732 346.790863,404.996582 
	C347.619598,405.057953 348.456787,405.005524 349.290070,405.005524 
	C401.787537,405.005524 454.285675,404.846619 506.782196,405.072540 
	C533.024536,405.185455 558.830078,408.444641 583.681946,417.621674 
	C610.612549,427.566345 631.134338,445.573364 649.319702,467.242035 
	C672.296570,494.620117 683.607178,526.434448 688.110046,561.284180 
	C691.832947,590.097046 693.180908,619.056030 691.853210,648.012329 
	C689.322632,703.203064 674.659363,754.720520 640.552185,799.074707 
	C620.635559,824.974915 594.829651,843.632568 562.774414,852.078918 
	C553.558167,854.507324 543.747498,855.552368 534.191284,855.662415 
	C498.697723,856.070923 463.195312,856.015930 427.698639,855.775269 
	C386.425354,855.495361 352.758087,871.346619 326.229858,902.709106 
	C321.827301,907.913879 317.914978,913.532043 313.551086,918.771729 
	C312.575043,919.943604 310.651794,920.326599 309.164673,921.072815 
	C308.704620,919.513855 307.604706,917.831787 307.877594,916.413940 
	C315.932922,874.559753 333.991730,838.474060 368.405029,811.833069 
	C379.768524,803.035950 383.501617,790.749451 383.505768,776.987000 
	C383.530151,695.824524 383.517731,614.662109 383.517700,532.999634 
M563.328979,474.120789 
	C558.962280,472.100464 554.688232,469.842438 550.213928,468.098236 
	C519.841553,456.258240 488.103638,455.781708 456.213715,457.351013 
	C448.023804,457.754028 445.154022,461.353027 445.053925,469.748932 
	C444.863281,485.739197 444.990509,501.733398 445.000214,517.725952 
	C445.052979,604.708923 445.109497,691.691833 445.171021,778.674805 
	C445.172211,780.338867 445.147797,782.013123 445.309937,783.665405 
	C446.407623,794.853333 450.041473,798.151428 461.318542,798.163452 
	C480.315216,798.183777 499.319611,797.835144 518.306274,798.271729 
	C534.283997,798.638977 548.000488,793.302612 560.135559,783.476746 
	C582.551331,765.326416 596.854858,741.590149 605.869507,714.605408 
	C624.740356,658.116211 624.185730,600.593567 612.556458,543.029846 
	C606.606323,513.577087 591.554626,489.257446 563.328979,474.120789 
z"/>
<path fill="#FEFEFE" opacity="1.000000" stroke="none" 
	d="
M563.652893,474.300903 
	C591.554626,489.257446 606.606323,513.577087 612.556458,543.029846 
	C624.185730,600.593567 624.740356,658.116211 605.869507,714.605408 
	C596.854858,741.590149 582.551331,765.326416 560.135559,783.476746 
	C548.000488,793.302612 534.283997,798.638977 518.306274,798.271729 
	C499.319611,797.835144 480.315216,798.183777 461.318542,798.163452 
	C450.041473,798.151428 446.407623,794.853333 445.309937,783.665405 
	C445.147797,782.013123 445.172211,780.338867 445.171021,778.674805 
	C445.109497,691.691833 445.052979,604.708923 445.000214,517.725952 
	C444.990509,501.733398 444.863281,485.739197 445.053925,469.748932 
	C445.154022,461.353027 448.023804,457.754028 456.213715,457.351013 
	C488.103638,455.781708 519.841553,456.258240 550.213928,468.098236 
	C554.688232,469.842438 558.962280,472.100464 563.652893,474.300903 
M598.962524,642.153870 
	C598.307800,621.321594 597.915955,600.476685 596.917908,579.660828 
	C596.069580,561.967529 592.362122,544.890198 585.281006,528.461548 
	C578.501465,512.732605 567.848633,500.949768 552.850525,493.015961 
	C539.026978,485.703430 524.270996,481.290344 508.674286,480.039734 
	C494.604065,478.911530 480.506500,478.123962 466.208252,477.172028 
	C466.208252,577.839294 466.208252,677.227173 466.208252,776.997437 
	C484.696381,776.997437 502.986115,777.224365 521.263245,776.845520 
	C526.116760,776.744873 531.301514,775.576599 535.695312,773.528320 
	C549.047485,767.303772 558.718079,756.763611 567.014343,744.849304 
	C582.509705,722.596191 590.531250,697.490051 594.938110,671.070374 
	C596.489624,661.768555 597.342285,652.350159 598.962524,642.153870 
z"/>
<path fill="#000000" opacity="1.000000" stroke="none" 
	d="
M598.738281,642.569458 
	C597.342285,652.350159 596.489624,661.768555 594.938110,671.070374 
	C590.531250,697.490051 582.509705,722.596191 567.014343,744.849304 
	C558.718079,756.763611 549.047485,767.303772 535.695312,773.528320 
	C531.301514,775.576599 526.116760,776.744873 521.263245,776.845520 
	C502.986115,777.224365 484.696381,776.997437 466.208252,776.997437 
	C466.208252,677.227173 466.208252,577.839294 466.208252,477.172028 
	C480.506500,478.123962 494.604065,478.911530 508.674286,480.039734 
	C524.270996,481.290344 539.026978,485.703430 552.850525,493.015961 
	C567.848633,500.949768 578.501465,512.732605 585.281006,528.461548 
	C592.362122,544.890198 596.069580,561.967529 596.917908,579.660828 
	C597.915955,600.476685 598.307800,621.321594 598.738281,642.569458 
z"/>
</svg>